<?xml version="1.0"?>
<svg width="40" height="40" xmlns="http://www.w3.org/2000/svg" xmlns:svg="http://www.w3.org/2000/svg" enable-background="new 0 0 512 512" version="1.1" xml:space="preserve">
 <g class="layer">
  <title>Layer 1</title>
  <g id="svg_34">
   <g id="svg_35">
    <path d="m34.04,6.17c-3.68,-3.66 -8.58,-5.67 -13.79,-5.67s-10.11,2.02 -13.79,5.67c-3.68,3.66 -5.71,8.52 -5.71,13.7c0,5.18 2.03,10.04 5.71,13.7c3.68,3.66 8.58,5.67 13.79,5.67c5.21,0 10.11,-2.02 13.79,-5.67c3.68,-3.66 5.71,-8.52 5.71,-13.7s-2.03,-10.04 -5.71,-13.7zm-13.79,31.49c-7.18,0 -13.38,-4.22 -16.24,-10.29c0.52,-0.04 1,-0.26 1.38,-0.63c0.44,-0.43 0.69,-1.02 0.69,-1.63l0,-0.71c0,-0.56 0.46,-1.03 1.02,-1.04c0.27,-0.01 0.53,0.1 0.73,0.3c0.21,0.21 0.33,0.49 0.33,0.78l0,1.79c0,1.42 1.16,2.6 2.58,2.62c0.02,0 0.03,0 0.05,0c0.68,0 1.33,-0.26 1.83,-0.75c0.51,-0.5 0.81,-1.2 0.81,-1.91l0,-1.38c1.54,2.08 4.02,3.44 6.81,3.44c3.98,0 7.32,-2.75 8.21,-6.43c0.1,0.13 0.17,0.29 0.17,0.47l0,1.95c0,1.49 1.22,2.72 2.71,2.75c0.02,0 0.04,0 0.05,0c0.72,0 1.4,-0.28 1.92,-0.79c0.54,-0.53 0.85,-1.26 0.85,-2.01l0,-1.88c0,-0.21 0.09,-0.42 0.24,-0.58c0.15,-0.14 0.34,-0.22 0.53,-0.22c0.41,0.01 0.75,0.35 0.75,0.76l0,0.21c0,1.09 0.77,2.02 1.79,2.27c-2.15,7.44 -9.05,12.89 -17.22,12.89zm17.02,-15.17l0,-0.21c0,-1.27 -1.04,-2.32 -2.31,-2.34c-0.63,-0.01 -1.22,0.23 -1.68,0.67c-0.46,0.45 -0.72,1.07 -0.72,1.7l0,1.88c0,0.33 -0.14,0.65 -0.37,0.88c-0.23,0.22 -0.52,0.34 -0.82,0.33c-0.63,-0.01 -1.15,-0.54 -1.15,-1.17l0,-1.95c0,-1 -0.64,-1.86 -1.53,-2.19c0,-0.08 0,-0.15 0,-0.23c0,-3.49 -2.21,-6.64 -5.5,-7.86c-0.41,-0.15 -0.87,0.06 -1.02,0.47c-0.15,0.41 0.06,0.86 0.47,1.02c2.67,0.99 4.46,3.55 4.46,6.38c0,3.75 -3.07,6.8 -6.84,6.8c-3.77,0 -6.84,-3.05 -6.84,-6.8c0,-2.83 1.79,-5.39 4.46,-6.38c0.41,-0.15 0.62,-0.61 0.47,-1.02s-0.61,-0.62 -1.02,-0.47c-3.29,1.21 -5.5,4.37 -5.5,7.86c0,1.04 0.19,2.03 0.54,2.95c-0.32,0.4 -0.5,0.9 -0.5,1.42l0,1.95c0,0.29 -0.12,0.58 -0.33,0.78c-0.2,0.2 -0.46,0.3 -0.73,0.3c-0.56,-0.01 -1.02,-0.48 -1.02,-1.04l0,-1.79c0,-0.71 -0.3,-1.41 -0.81,-1.91c-0.51,-0.5 -1.18,-0.76 -1.88,-0.75c-1.43,0.03 -2.58,1.2 -2.58,2.62l0,0.71c0,0.19 -0.08,0.37 -0.21,0.5c-0.13,0.12 -0.29,0.19 -0.46,0.19c-0.26,-0.01 -0.49,-0.16 -0.59,-0.39c-0.57,-1.74 -0.89,-3.6 -0.89,-5.53c0,-9.81 8.03,-17.79 17.91,-17.79s17.91,7.98 17.91,17.79c0,1.15 -0.11,2.27 -0.32,3.36c-0.33,-0.09 -0.57,-0.38 -0.57,-0.73z" id="svg_36"/>
   </g>
  </g>
  <g id="svg_37"/>
  <g id="svg_38"/>
  <g id="svg_39"/>
  <g id="svg_40"/>
  <g id="svg_41"/>
  <g id="svg_42"/>
  <g id="svg_43"/>
  <g id="svg_44"/>
  <g id="svg_45"/>
  <g id="svg_46"/>
  <g id="svg_47"/>
  <g id="svg_48"/>
  <g id="svg_49"/>
  <g id="svg_50"/>
  <g id="svg_51"/>
 </g>
</svg>